<svg id="Layer_1" data-name="Layer 1" xmlns="http://www.w3.org/2000/svg" viewBox="0 0 394.26 158.31"><defs><style>.cls-1,.cls-4{fill:#662d91;}.cls-2,.cls-5{fill:#fff;}.cls-2{stroke:#fff;}.cls-2,.cls-3,.cls-4{stroke-miterlimit:10;stroke-width:5px;}.cls-3{stroke:#000;}.cls-3,.cls-4{stroke-linecap:round;}.cls-4{stroke:#662d91;}</style></defs><title>CKW-DESIGNS-Logo</title><path d="M394.18,91.72c-4,22-25,35-43,47-10,6-21,10-32,13-25,7-49,8-75,5-20-3-40-9-58-19-15-8-30-14-45-23-12-6-24-12-38-16-21-5-41-9-63-11-9-2-17-2-25-6h-3c-5-2-11-5-12-11-1-9,3-18,10-25,25-27,58-40,93-44a174,174,0,0,1,103,17c40,20,78,42,123,49,5,0,9,1,14,2h6c16,6,42,1,45,22Z" transform="translate(0 0)"/><path class="cls-1" d="M394.18,73.39c1,8-7,13-14,15-19,3-37,3-56,5a237.67,237.67,0,0,0-69,20c-26,13-49,28-77,36a185.75,185.75,0,0,1-34,6c-19,3-36,1-55-3-31-7-58-21-79-46-6-8-13-18-9-29a12.72,12.72,0,0,1,9-7c19-5,38-3,57-6,14-2,27-4,40-8,8-3,17-5,25-9,19-10,37-19,56-29a184.42,184.42,0,0,1,47-15c16-3,32-3,48-2,28,3,54,11,77,28,15,12,32,25,34,44Z" transform="translate(0 0)"/><path class="cls-2" d="M35.25,107.2a12.12,12.12,0,0,1-10.64-6.09,15,15,0,0,1-2.17-8c0-6.07,2.59-13.2,7.92-21.79a76.72,76.72,0,0,1,13.84-17C49.12,50.05,53.49,48,57.57,48a9.26,9.26,0,0,1,7.62,3.69,10.19,10.19,0,0,1,2,6.23A21.68,21.68,0,0,1,64.35,68a33.31,33.31,0,0,1-5.88,8,13.48,13.48,0,0,1-3.65,2.7,5.61,5.61,0,0,1,4.94,5.69c0,2-.8,4.3-4.87,10a38.08,38.08,0,0,1-8.3,8.64C42.77,105.77,39,107.2,35.25,107.2Zm9.88-33.54a50.79,50.79,0,0,0-5.6,9.41c-1.76,4-2.66,7.29-2.66,9.85a1.12,1.12,0,0,0,.22.82l0,0c.54-.13,2.35-.82,5.81-4.37a46.65,46.65,0,0,0,3.71-4.63,21.89,21.89,0,0,0,1.65-2.41,7,7,0,0,1,2.88-3.06,6.9,6.9,0,0,1-4.49-2.45A6.71,6.71,0,0,1,45.13,73.66Z" transform="translate(0 0)"/><path class="cls-2" d="M55.35,48.38A4.24,4.24,0,0,1,59,50.07a5.17,5.17,0,0,1,1,3.23,17.09,17.09,0,0,1-2.29,7.77,28.12,28.12,0,0,1-5,6.75c-1.31,1.29-2.34,1.93-3.09,1.93A1.8,1.8,0,0,1,48.25,69a1.77,1.77,0,0,1-.46-1.2c0-.82.72-1.76,2.14-2.81a20.16,20.16,0,0,0,4.82-4.92q2.64-3.87,2.64-6.54a2.34,2.34,0,0,0-.48-1.62,1.81,1.81,0,0,0-1.42-.53q-1.93,0-5.48,2.82a56.52,56.52,0,0,0-8.55,8.61,60,60,0,0,0-8.72,13.64q-3.09,7-3.09,11.88a6.09,6.09,0,0,0,1.37,4,4.6,4.6,0,0,0,3.69,1.86q3.8,0,9.56-5.9a49.73,49.73,0,0,0,4.19-5.21A24.25,24.25,0,0,0,50.53,80q.53-1,1.23-1c.52,0,.78.25.78.74,0,1.05-1.32,3.42-3.94,7.1a32.85,32.85,0,0,1-7.21,7.52Q37,97.63,33,97.63a7.07,7.07,0,0,1-6.36-3.69,10.1,10.1,0,0,1-1.44-5.38q0-7.59,7.17-19.16a71.22,71.22,0,0,1,12.9-15.85Q51.17,48.38,55.35,48.38Z" transform="translate(0 0)"/><path class="cls-2" d="M58.52,106.25a6.6,6.6,0,0,1-5.84-3.41l-.08-.15A7.7,7.7,0,0,1,51.73,99c0-2.64,1-6.07,3.29-11.12,1.12-2.47,2.66-5.53,4.58-9.1.79-1.44,2.38-4,4.9-8,6.37-10.08,8.74-15.08,9.6-17.49a15.27,15.27,0,0,1,1.76-3.78l.13-.18a6.88,6.88,0,0,1,5.49-2.73,6.32,6.32,0,0,1,4,1.45l.11.09a6.5,6.5,0,0,1,2.25,5,10.12,10.12,0,0,1-.31,2.4c1.72-.93,3.83-2,6.31-3.11a12.6,12.6,0,0,1,5.21-1.51,6.39,6.39,0,0,1,4.18,1.57l.16.14.15.14a6.9,6.9,0,0,1-1,10.53,11.9,11.9,0,0,1-3.4,1.52,62.47,62.47,0,0,0-16,8.84c-.45,1.82-.81,3.61-1.08,5.35s-.49,3.5-.66,5.1c.82-1.13,2.62-3.31,5.56-3.31a5.78,5.78,0,0,1,5.81,6c0,2.16-1.07,4.51-3.94,8.67-3.94,5.8-7.92,8.63-12.13,8.63s-7.5-2.53-8.8-6.78a17.42,17.42,0,0,1-.66-3.16,30.87,30.87,0,0,0-1.91,5.92l0,.18C64.34,104.67,61.16,106.25,58.52,106.25Z" transform="translate(0 0)"/><path class="cls-2" d="M74.19,63.29q1.52-.81,6.08-3.66c.9-.56,3.32-2,7.28-4.18,1.62-.9,3.68-1.91,6.19-3.06a9.4,9.4,0,0,1,3.13-1.06,1.46,1.46,0,0,1,.95.39,1.82,1.82,0,0,1,.53,1.33,1.86,1.86,0,0,1-.88,1.59,9.92,9.92,0,0,1-2.18.88A65.24,65.24,0,0,0,76.55,66.24,68.48,68.48,0,0,0,75,73.66a89.36,89.36,0,0,0-1.16,13,6.64,6.64,0,0,0,.47,2.86,1.52,1.52,0,0,0,1.42,1q1.88,0,7.42-7.84c.71-1,1.27-1.47,1.69-1.47s.81.32.81,1c0,.94-1,2.88-3.06,5.84q-4.4,6.46-8,6.46c-2,0-3.35-1.07-4-3.23a16.8,16.8,0,0,1-.64-5.06,60.12,60.12,0,0,1,1.55-13q1.55-7,1.86-8.64-2,3.62-7.34,12.34Q59.54,88,58.27,94.54c-.33,1.43-1,2.14-2,2.14a1.65,1.65,0,0,1-1.51-.91,2.8,2.8,0,0,1-.28-1.34c0-1.82.94-4.85,2.84-9.07q1.62-3.54,4.43-8.79,1.06-1.92,4.71-7.66,8-12.69,10.09-18.49a14.53,14.53,0,0,1,1.13-2.57A1.9,1.9,0,0,1,79.26,47a1.34,1.34,0,0,1,.87.32,1.47,1.47,0,0,1,.53,1.19Q80.66,51.61,74.19,63.29Z" transform="translate(0 0)"/><path class="cls-2" d="M95.47,108.4a7.21,7.21,0,0,1-6.5-3.9,9.35,9.35,0,0,1-1-4.41c0-6.29,3-16.71,9.16-31.87,3.58-8.85,4.56-11.61,4.81-12.46a11.25,11.25,0,0,1,2.46-5A7.64,7.64,0,0,1,110,48.26a6.3,6.3,0,0,1,6.55,6.48,21.79,21.79,0,0,1-1.64,7.17c-.34.94-.75,2-1.21,3.16a7.61,7.61,0,0,1,3-.63,6.15,6.15,0,0,1,5.49,3c.58-1,1.18-2.11,1.79-3.16a111.07,111.07,0,0,1,8.79-13c1.75-2.26,4.2-4.88,7.59-4.88a6.34,6.34,0,0,1,4.95,2.42,6.41,6.41,0,0,1,1.5,4.13c0,2-1.1,3.82-3.25,6.57A104.59,104.59,0,0,0,135.74,71c-2.88,4.94-6.57,12.15-11,21.4-2.07,4.39-3.64,7.47-4.78,9.4-2.59,4.3-5.84,5.2-8.1,5.2a8,8,0,0,1-7.09-4.12,11.84,11.84,0,0,1-.55-1.13l0,.08a18.54,18.54,0,0,1-3.18,4.28A7.9,7.9,0,0,1,95.47,108.4Z" transform="translate(0 0)"/><path class="cls-2" d="M95.11,92.25q2-2.67,3.62-5.13.92-1.44,4.82-7.87l3-4.89q3.3-5.42,4.39-6.93,1.8-2.57,3.55-2.56c.85,0,1.27.33,1.27,1a4.22,4.22,0,0,1-.49,1.69q-.36.7-2,4.89a50.05,50.05,0,0,0-2.5,9.49,39,39,0,0,0-.63,6.36q0,.78.09,1.71c0,.62.14,1.3.26,2.05A30.19,30.19,0,0,0,113.6,87q1.62-3.3,5-10.51,3.2-6.89,7.48-14.31a106.29,106.29,0,0,1,8.41-12.37q2.28-3,3.65-3a1.61,1.61,0,0,1,1.44,1.55c0,.47-.72,1.63-2.18,3.48a108.49,108.49,0,0,0-8.19,12.06q-4.46,7.67-11.18,21.8-3,6.32-4.57,9c-1.1,1.82-2.37,2.74-3.79,2.74a3,3,0,0,1-2.75-1.6,9.86,9.86,0,0,1-.91-4.77,59.33,59.33,0,0,1,1.69-12.62,51,51,0,0,0-3.87,5.87c-1.1,1.88-2.17,3.68-3.2,5.42-1.5,2.51-2.5,4.19-3,5.06A13.55,13.55,0,0,1,95.32,98a2.86,2.86,0,0,1-2.07.85,2.18,2.18,0,0,1-2.08-1.23,4.38,4.38,0,0,1-.45-2.08q0-8.35,8.79-30,4.27-10.59,5-13a7.44,7.44,0,0,1,1.26-3,2.61,2.61,0,0,1,2-.91c1,0,1.55.49,1.55,1.47a17.93,17.93,0,0,1-1.34,5.45q-1.51,4.16-4.85,11.74-2.28,5.25-3.23,7.84Q95.57,88.15,95.11,92.25Z" transform="translate(0 0)"/><path class="cls-2" d="M153.06,107.83a8.84,8.84,0,0,1-7-3A8.49,8.49,0,0,1,144,99.32c0-1.4.32-3.55,2.63-9.82a195.49,195.49,0,0,1,8.95-20.19c.18-.35.55-1.07,1.57-3a6.48,6.48,0,0,1-1.9-4.57c0-3.33,2.59-5.75,5.4-7.86A23.77,23.77,0,0,1,175.17,49a14.9,14.9,0,0,1,15.37,15.16c0,5.4-1.83,11.37-5.61,18.26a59.6,59.6,0,0,1-16.57,19.25C162.8,105.8,157.8,107.83,153.06,107.83Zm21.63-45.18a28.44,28.44,0,0,1-1.5,3.05,219.66,219.66,0,0,0-10.88,22.09c-.38.9-.73,1.72-1,2.47a54.76,54.76,0,0,0,6.24-6.67A50,50,0,0,0,175,71.34a20.72,20.72,0,0,0,1.93-7.81,4.31,4.31,0,0,0-.08-.94,3.59,3.59,0,0,0-.82-.07A7,7,0,0,0,174.69,62.65Z" transform="translate(0 0)"/><path class="cls-2" d="M163.56,56.29a13.57,13.57,0,0,0-1.79,1.19,4.4,4.4,0,0,1-2.25,1.27,1.38,1.38,0,0,1-1-.46A1.49,1.49,0,0,1,158,57.2c0-.86,1.13-2.15,3.41-3.86A18.71,18.71,0,0,1,173,49.4a9.9,9.9,0,0,1,10.37,10.16q0,6.75-5,15.85a54.35,54.35,0,0,1-15.19,17.65q-6.93,5.2-12.31,5.21a4,4,0,0,1-3.2-1.27,3.47,3.47,0,0,1-.87-2.25c0-1.2.77-3.89,2.32-8.09A191.22,191.22,0,0,1,157.79,67Q158.57,65.47,163.56,56.29Zm3.3-1.62c.71.35,1.06.74,1.06,1.16a11.47,11.47,0,0,1-1.34,2.89,228.15,228.15,0,0,0-11.11,22.57c-2.74,6.46-4.11,10.44-4.11,11.91,0,.94.45,1.41,1.34,1.41q2.25,0,6-2.43,4.75-3,10.44-10a54.13,54.13,0,0,0,8.16-13.46A25.42,25.42,0,0,0,179.66,59a6.18,6.18,0,0,0-1.48-4.52A6,6,0,0,0,173.76,53,17.45,17.45,0,0,0,166.86,54.67Z" transform="translate(0 0)"/><path class="cls-2" d="M184.17,105a7.12,7.12,0,0,1-5.71-3,7.74,7.74,0,0,1-1.72-4.78c0-1.11.18-2.28,2.57-8.31a151.13,151.13,0,0,1,9.41-19.2c1.2-2.14,3.41-5.61,6.72-10.59l.17-.27a7.41,7.41,0,0,1-.3-2.13,6.7,6.7,0,0,1,4-6.18,33.38,33.38,0,0,1,8.38-2.07,94.76,94.76,0,0,1,14-1.25c7.83,0,8,5.94,8,6.62a7.24,7.24,0,0,1-3.1,5.93A7.53,7.53,0,0,1,222,61.11l-.92,0h-1a67.47,67.47,0,0,0-6.76.49c-1.18.13-2.27.29-3.28.47a19.76,19.76,0,0,1-1.62,2.37l-.72,1.11c.81-.07,1.53-.1,2.15-.1,4.25,0,7.22,2.79,7.22,6.79a6.44,6.44,0,0,1-3.81,6.07,10.42,10.42,0,0,1-3.87.79,64,64,0,0,0-10.85,1.42c-.74,1.3-1.81,3.33-3.33,6.48a37.39,37.39,0,0,1,6.8-.67,11.08,11.08,0,0,1,5.05,1,6.64,6.64,0,0,1-.73,12.1l-.21.07a12.66,12.66,0,0,1-3.46.39,32.74,32.74,0,0,0-14.34,3.94A8.34,8.34,0,0,1,184.17,105Z" transform="translate(0 0)"/><path class="cls-2" d="M195.31,67.57l1.4-.24a68.23,68.23,0,0,1,10.83-1.48c1.48,0,2.22.6,2.22,1.79a1.5,1.5,0,0,1-.88,1.52,6.22,6.22,0,0,1-2,.35q-9.1.55-13.85,2.14A90.17,90.17,0,0,0,187.54,82a64.35,64.35,0,0,0-3.24,8.2l1.58-.57a77.92,77.92,0,0,1,7.67-2.28,32.64,32.64,0,0,1,6.15-.64,6.62,6.62,0,0,1,2.81.46,1.48,1.48,0,0,1,.81,1.48,1.4,1.4,0,0,1-1,1.44,11.39,11.39,0,0,1-2.18.18,37.45,37.45,0,0,0-16.6,4.57,3.47,3.47,0,0,1-1.61.52,2.19,2.19,0,0,1-1.76-1,2.71,2.71,0,0,1-.67-1.72q0-.87,2.22-6.47a145.11,145.11,0,0,1,9.1-18.56q1.72-3.06,6.54-10.3c.73-1.13,1.43-2.23,2.11-3.31a1.72,1.72,0,0,1-1.41-1.86,1.73,1.73,0,0,1,1.13-1.65,31,31,0,0,1,7-1.65,88.58,88.58,0,0,1,13.18-1.2q3.06,0,3.06,1.62a2.3,2.3,0,0,1-1,1.9,3,3,0,0,1-1.69.38l-.81,0h-1.16a69.77,69.77,0,0,0-7.31.53,41.9,41.9,0,0,0-7.14,1.33,1.62,1.62,0,0,1,.35.85A7.52,7.52,0,0,1,202,57l-1.69,2.6A93.32,93.32,0,0,0,195.31,67.57Z" transform="translate(0 0)"/><path class="cls-2" d="M219.36,104.71c-4.69,0-8.51-1.42-11.37-4.2a11.67,11.67,0,0,1-3.65-8.43,12.07,12.07,0,0,1,3.47-8.64,13,13,0,0,1,4.73-3.08,10.13,10.13,0,0,1,3.69-.77,7.81,7.81,0,0,1,2.61.43l-.2-.36a16.48,16.48,0,0,1-2.24-8.08c0-5.86,2.76-11.26,8.2-16.06a36.2,36.2,0,0,1,8.85-5.66,21.57,21.57,0,0,1,8.69-2,10.58,10.58,0,0,1,6.53,2.1,9.18,9.18,0,0,1,3.74,7.54c0,3.64-1.72,7.34-5.13,11a34.88,34.88,0,0,1-9.77,7.31,16.24,16.24,0,0,1-4.38,1.6c.08.12.16.23.23.35,1.16,1.73,2.16,3.38,3,4.89a15,15,0,0,1,1.91,7c0,3.1-1.21,7.62-6.95,11.49A21.25,21.25,0,0,1,219.36,104.71Zm3.73-17.89a6.53,6.53,0,0,1-2.46,4.4A7.48,7.48,0,0,0,224,89.71c.25-.2.25-.24.25-.41a1.62,1.62,0,0,0-.13-.73C224,88.25,223.64,87.69,223.09,86.82Z" transform="translate(0 0)"/><path class="cls-2" d="M214,80c1.26,0,1.9.52,1.9,1.55,0,.77-.59,1.36-1.76,1.75-2,.73-3,2-3,3.91a4.07,4.07,0,0,0,1.75,3.51,6.52,6.52,0,0,0,3.84,1.06,12.82,12.82,0,0,0,8.12-2.71A5.34,5.34,0,0,0,227,84.73a6.49,6.49,0,0,0-.64-2.92,31.77,31.77,0,0,0-2-3.37c-1.41-2.11-2.59-4-3.56-5.77A11.59,11.59,0,0,1,219.18,67q0-6.57,6.5-12.3a30.91,30.91,0,0,1,7.59-4.85,16.53,16.53,0,0,1,6.65-1.52,5.69,5.69,0,0,1,3.51,1.09A4.18,4.18,0,0,1,245.19,53q0,3.52-3.79,7.6A30,30,0,0,1,233,66.84,9.29,9.29,0,0,1,229.41,68a1.92,1.92,0,0,1-1.44-.67,1.42,1.42,0,0,1-.43-1c0-.86.78-1.57,2.32-2.11A24,24,0,0,0,237.39,60q4.22-3.51,4.22-6.15a2,2,0,0,0-.85-1.65,2.57,2.57,0,0,0-1.58-.5,14.07,14.07,0,0,0-6.08,1.87A21,21,0,0,0,225.36,60a11.4,11.4,0,0,0-2.46,6.65,10.57,10.57,0,0,0,1.3,4.85q1.1,2,2.78,4.53t2.74,4.5a9.9,9.9,0,0,1,1.3,4.61q0,4.14-4.74,7.35a16.22,16.22,0,0,1-9.14,2.67,10.82,10.82,0,0,1-7.88-2.78,6.61,6.61,0,0,1-2.14-4.85,7,7,0,0,1,2-5.13,7.74,7.74,0,0,1,2.92-1.9A5.36,5.36,0,0,1,214,80Z" transform="translate(0 0)"/><path class="cls-2" d="M241,104.64a6.67,6.67,0,0,1-5.26-2.6,7.15,7.15,0,0,1-1.68-4.65c0-1.84.59-4.29,2-8.18,2.69-7.65,7.53-16.83,14.38-27.29a117.09,117.09,0,0,1,7-9.82l.07-.08c1.46-1.72,3.5-3.69,6.29-3.69a6.45,6.45,0,0,1,4.84,2.29,6.74,6.74,0,0,1,1.71,4.47,9.44,9.44,0,0,1-1.72,5c-.25.41-.89,1.37-3.62,5.15-8.88,12.23-14.65,23.31-17.18,32.95C246.85,103,243.69,104.64,241,104.64Z" transform="translate(0 0)"/><path class="cls-2" d="M261.54,48.77a1.51,1.51,0,0,1,1.09.59,1.78,1.78,0,0,1,.46,1.16,5,5,0,0,1-.95,2.39q-.47.75-3.45,4.89-14,19.28-18,34.77c-.3,1.67-.93,2.5-1.9,2.5a1.76,1.76,0,0,1-1.37-.74,2.32,2.32,0,0,1-.56-1.51,24,24,0,0,1,1.69-6.51q3.87-11,13.85-26.22A112.9,112.9,0,0,1,259,50.7C260.15,49.41,261,48.77,261.54,48.77Z" transform="translate(0 0)"/><path class="cls-2" d="M264.22,120.28a6.61,6.61,0,0,1-5.35-2.56,7.19,7.19,0,0,1-1.48-4.41c0-2.62,1-6.1,3.36-11.17a10.61,10.61,0,0,1-8-5,13.06,13.06,0,0,1-2.18-7.39c0-5.88,2.33-12.3,7.15-19.62a75.18,75.18,0,0,1,14.58-16.43c5.19-4.32,9.79-6.42,14.06-6.42a9.49,9.49,0,0,1,7.74,3.94,10.69,10.69,0,0,1,2.08,6.47c0,5.34-2.45,10.74-7.28,16.05-2.84,3.13-5.2,5.06-7.42,6a6.23,6.23,0,0,1,1.63,1.37,7.33,7.33,0,0,1,1.68,4.71,9.29,9.29,0,0,1-2.18,5.58,60.76,60.76,0,0,0-3.5,5.56A91.25,91.25,0,0,0,274,107.32a51.08,51.08,0,0,0-2.42,6.25,10.87,10.87,0,0,1-1.71,4A6.84,6.84,0,0,1,264.22,120.28Zm7.53-45.61a57.24,57.24,0,0,0-5.34,8.91,23.28,23.28,0,0,0-1.64,4.33,16.19,16.19,0,0,0,1.62-1,47.91,47.91,0,0,0,5.9-4.76,12.72,12.72,0,0,1,3-2.39,8.11,8.11,0,0,1-1.19-.78l-.17-.14A6.46,6.46,0,0,1,271.75,74.67Z" transform="translate(0 0)"/><path class="cls-2" d="M269,88.25q-2.39,1.65-3.83,2.46a12,12,0,0,1-5.73,1.9,5.52,5.52,0,0,1-4.71-2.78,8.13,8.13,0,0,1-1.34-4.61q0-7.25,6.33-16.87A69.84,69.84,0,0,1,273.32,53q6.33-5.28,10.86-5.27a4.45,4.45,0,0,1,3.73,1.93A5.72,5.72,0,0,1,289,53.16q0,6.12-6,12.69-4.57,5-6.92,5a1.69,1.69,0,0,1-1.06-.42,1.52,1.52,0,0,1-.56-1.16c0-.59.51-1.3,1.54-2.15a36.49,36.49,0,0,0,6.47-6.54q3.9-5.16,3.91-8.19a1.6,1.6,0,0,0-.6-1.3,2.14,2.14,0,0,0-1.37-.46c-1.25,0-2.91.73-5,2.18a61.18,61.18,0,0,0-12.9,12.91,63.21,63.21,0,0,0-6.85,11.11c-1.6,3.35-2.39,6.09-2.39,8.22a4,4,0,0,0,.81,2.39A3.33,3.33,0,0,0,260.94,89c1.67,0,3.72-.87,6.16-2.63A54.17,54.17,0,0,0,273.63,81c1.11-1.13,1.94-1.69,2.5-1.69a1.2,1.2,0,0,1,1,.46,2.25,2.25,0,0,1,.5,1.48,4.93,4.93,0,0,1-1.2,2.6,68,68,0,0,0-3.8,6,94.64,94.64,0,0,0-5.44,10.9,58.9,58.9,0,0,0-2.68,7,6.49,6.49,0,0,1-.88,2.22,1.88,1.88,0,0,1-1.61.7,1.69,1.69,0,0,1-1.41-.63,2.18,2.18,0,0,1-.42-1.34q0-3,3.48-10.33c.37-.78,1.56-3,3.55-6.75C267.6,90.91,268.2,89.77,269,88.25Z" transform="translate(0 0)"/><path class="cls-2" d="M283.34,106.5a6.45,6.45,0,0,1-6.37-6.34c0-1.41.45-3.4,2.64-8.92A151,151,0,0,1,289.76,71.5c2.78-4.72,6.13-9.81,9.95-15.11a32.67,32.67,0,0,1,4.82-5.73A8.49,8.49,0,0,1,310,48.51a6.21,6.21,0,0,1,3.93,1.38,6.14,6.14,0,0,1,2.37,4.85,9.25,9.25,0,0,1-.71,3.44c-.15.41-.32.84-.48,1.3.19-.32.38-.65.56-1,3.69-6.47,5-8.24,5.81-9.1a8.29,8.29,0,0,1,6.21-3,5.92,5.92,0,0,1,6.12,6,7.61,7.61,0,0,1-1.17,3.89c-.19.33-.74,1.26-3,4.88a184.07,184.07,0,0,0-11.51,21.08c-2.18,4.93-4.07,9.81-5.63,14.51a17,17,0,0,1-2.84,5.53c-2.48,3-5.16,3.7-7,3.7-2.57,0-5.87-1.61-6.73-6.11a22.25,22.25,0,0,1-.27-4.2c0-2.61.11-5.36.34-8.23a79.64,79.64,0,0,0-4,9.84,25.35,25.35,0,0,1-2.07,5.24A7.65,7.65,0,0,1,283.34,106.5Z" transform="translate(0 0)"/><path class="cls-2" d="M302.5,88.39a124.42,124.42,0,0,1,6.89-16.56q3.12-6.15,8.4-15.44a63.11,63.11,0,0,1,5.13-8.19,3.5,3.5,0,0,1,2.53-1.33c.75,0,1.13.33,1.13,1a3,3,0,0,1-.49,1.37q-.46.81-2.92,4.75A187.37,187.37,0,0,0,311.32,75.7q-3.37,7.62-5.8,14.94a12.45,12.45,0,0,1-1.93,3.9,4.25,4.25,0,0,1-3.13,1.9c-1,0-1.57-.69-1.83-2.08a18.63,18.63,0,0,1-.18-3.23,117.45,117.45,0,0,1,1.66-18.67,144.3,144.3,0,0,1,3-14.45Q299.71,61.75,293,73.62a97.78,97.78,0,0,0-7.94,17.58,26.47,26.47,0,0,1-1.58,4.18,2.71,2.71,0,0,1-2.36,1.55,1.29,1.29,0,0,1-1-.49,1.34,1.34,0,0,1-.35-.85q0-1.34,2.29-7.06a144.24,144.24,0,0,1,9.8-19.06q4.08-6.91,9.71-14.73a29.39,29.39,0,0,1,4-4.81,3.64,3.64,0,0,1,2.25-1,1.33,1.33,0,0,1,.81.28,1.17,1.17,0,0,1,.49,1,4.36,4.36,0,0,1-.35,1.58,91.15,91.15,0,0,0-3.48,12,95.88,95.88,0,0,0-2.85,21C302.39,85.53,302.43,86.75,302.5,88.39Z" transform="translate(0 0)"/><path class="cls-2" d="M328.56,104.71c-4.69,0-8.51-1.42-11.37-4.2a11.63,11.63,0,0,1-3.65-8.43A12.07,12.07,0,0,1,317,83.44a12.8,12.8,0,0,1,4.73-3.08,10.13,10.13,0,0,1,3.69-.77A7.89,7.89,0,0,1,328,80c-.07-.12-.14-.24-.2-.36a16.38,16.38,0,0,1-2.25-8.08c0-5.86,2.76-11.26,8.2-16.06a36.39,36.39,0,0,1,8.85-5.66,21.65,21.65,0,0,1,8.7-2,10.63,10.63,0,0,1,6.53,2.1,9.18,9.18,0,0,1,3.74,7.54c0,3.64-1.73,7.34-5.14,11a35,35,0,0,1-9.76,7.31,16.46,16.46,0,0,1-4.38,1.6l.23.35c1.16,1.73,2.16,3.38,3,4.89a14.93,14.93,0,0,1,1.9,7c0,3.1-1.2,7.62-6.95,11.49A21.22,21.22,0,0,1,328.56,104.71Zm3.72-17.89a6.51,6.51,0,0,1-2.45,4.4,7.4,7.4,0,0,0,3.35-1.51c.25-.2.25-.24.25-.41a1.79,1.79,0,0,0-.12-.73C333.15,88.25,332.83,87.69,332.28,86.82Z" transform="translate(0 0)"/><path class="cls-2" d="M323.2,80c1.27,0,1.9.52,1.9,1.55,0,.77-.58,1.36-1.76,1.75q-3,1.09-3,3.91a4.08,4.08,0,0,0,1.76,3.51,6.49,6.49,0,0,0,3.83,1.06A12.82,12.82,0,0,0,334,89.09a5.31,5.31,0,0,0,2.18-4.36,6.62,6.62,0,0,0-.63-2.92,34,34,0,0,0-2-3.37q-2.12-3.16-3.55-5.77A11.5,11.5,0,0,1,328.37,67q0-6.57,6.51-12.3a30.54,30.54,0,0,1,7.59-4.85,16.49,16.49,0,0,1,6.64-1.52,5.7,5.7,0,0,1,3.52,1.09A4.2,4.2,0,0,1,354.39,53q0,3.52-3.8,7.6a30,30,0,0,1-8.37,6.26A9.24,9.24,0,0,1,338.6,68a1.92,1.92,0,0,1-1.44-.67,1.46,1.46,0,0,1-.42-1c0-.86.77-1.57,2.32-2.11A23.94,23.94,0,0,0,346.58,60c2.82-2.34,4.22-4.39,4.22-6.15a2,2,0,0,0-.84-1.65,2.59,2.59,0,0,0-1.58-.5,14.1,14.1,0,0,0-6.09,1.87A20.83,20.83,0,0,0,334.56,60a11.4,11.4,0,0,0-2.46,6.65,10.45,10.45,0,0,0,1.3,4.85c.73,1.33,1.65,2.84,2.78,4.53s2,3.12,2.74,4.5a9.9,9.9,0,0,1,1.3,4.61q0,4.14-4.75,7.35a16.2,16.2,0,0,1-9.14,2.67,10.8,10.8,0,0,1-7.87-2.78,6.62,6.62,0,0,1-2.15-4.85,7,7,0,0,1,2-5.13,7.82,7.82,0,0,1,2.92-1.9A5.4,5.4,0,0,1,323.2,80Z" transform="translate(0 0)"/><path class="cls-3" d="M55.35,51.1A4.26,4.26,0,0,1,59,52.78,5.18,5.18,0,0,1,60,56a17.09,17.09,0,0,1-2.29,7.77,28.12,28.12,0,0,1-5,6.75c-1.31,1.29-2.34,1.93-3.09,1.93a1.79,1.79,0,0,1-1.37-.74,1.75,1.75,0,0,1-.46-1.19c0-.82.72-1.76,2.14-2.81a20.19,20.19,0,0,0,4.82-4.93q2.64-3.86,2.64-6.54a2.33,2.33,0,0,0-.48-1.61,1.81,1.81,0,0,0-1.42-.53q-1.93,0-5.48,2.81a56.64,56.64,0,0,0-8.55,8.62,59.82,59.82,0,0,0-8.72,13.64q-3.09,7-3.09,11.88a6.09,6.09,0,0,0,1.37,4,4.6,4.6,0,0,0,3.69,1.86q3.8,0,9.56-5.91a49.43,49.43,0,0,0,4.19-5.2,24.25,24.25,0,0,0,2.07-3.09q.53-1,1.23-1c.52,0,.78.24.78.74,0,1.05-1.32,3.42-3.94,7.1a32.85,32.85,0,0,1-7.21,7.52Q37,100.35,33,100.35a7.07,7.07,0,0,1-6.36-3.69,10.1,10.1,0,0,1-1.44-5.38q0-7.59,7.17-19.16a71.52,71.52,0,0,1,12.9-15.86Q51.17,51.1,55.35,51.1Z" transform="translate(0 0)"/><path class="cls-3" d="M74.19,66q1.52-.81,6.08-3.65c.9-.57,3.32-2,7.28-4.19Q90,56.83,93.74,55.1a9.54,9.54,0,0,1,3.13-1.05,1.46,1.46,0,0,1,.95.39,1.8,1.8,0,0,1,.53,1.33,1.83,1.83,0,0,1-.88,1.58,9,9,0,0,1-2.18.88A65.25,65.25,0,0,0,76.55,69,68.82,68.82,0,0,0,75,76.37a89.6,89.6,0,0,0-1.16,13,6.67,6.67,0,0,0,.47,2.86,1.52,1.52,0,0,0,1.42,1q1.88,0,7.42-7.84c.71-1,1.27-1.48,1.69-1.48s.81.33.81,1c0,.93-1,2.88-3.06,5.83q-4.4,6.48-8,6.47c-2,0-3.35-1.08-4-3.23a16.87,16.87,0,0,1-.64-5.07,60.1,60.1,0,0,1,1.55-13q1.55-7,1.86-8.65-2,3.63-7.34,12.34-6.44,11.12-7.7,17.69c-.33,1.43-1,2.14-2,2.14a1.65,1.65,0,0,1-1.51-.91,2.8,2.8,0,0,1-.28-1.34c0-1.83.94-4.85,2.84-9.07q1.62-3.56,4.43-8.79,1.06-1.94,4.71-7.66,8-12.69,10.09-18.49a14.17,14.17,0,0,1,1.13-2.57,1.9,1.9,0,0,1,1.55-.81,1.34,1.34,0,0,1,.87.32,1.47,1.47,0,0,1,.53,1.19Q80.66,54.33,74.19,66Z" transform="translate(0 0)"/><path class="cls-3" d="M95.11,95q2-2.67,3.62-5.13.92-1.44,4.82-7.88l3-4.88q3.3-5.42,4.39-6.93,1.8-2.57,3.55-2.57c.85,0,1.27.33,1.27,1a4.26,4.26,0,0,1-.49,1.69c-.24.47-.9,2.09-2,4.88a50.16,50.16,0,0,0-2.5,9.5,39,39,0,0,0-.63,6.36c0,.51,0,1.08.09,1.7s.14,1.31.26,2.06a30.19,30.19,0,0,0,3.09-5.06q1.62-3.3,5-10.51,3.2-6.9,7.48-14.31a106.37,106.37,0,0,1,8.41-12.38q2.28-3,3.65-3a1.61,1.61,0,0,1,1.44,1.55c0,.47-.72,1.63-2.18,3.48a108.49,108.49,0,0,0-8.19,12.06Q124.76,74.31,118,88.43q-3,6.33-4.57,9c-1.1,1.83-2.37,2.74-3.79,2.74a3,3,0,0,1-2.75-1.6,9.79,9.79,0,0,1-.91-4.76,59.25,59.25,0,0,1,1.69-12.62,50.12,50.12,0,0,0-3.87,5.87c-1.1,1.88-2.17,3.68-3.2,5.42q-2.25,3.75-3,5.06a13.76,13.76,0,0,1-2.32,3.16,2.9,2.9,0,0,1-2.07.85,2.18,2.18,0,0,1-2.08-1.23,4.41,4.41,0,0,1-.45-2.08q0-8.37,8.79-30,4.27-10.57,5-13a7.37,7.37,0,0,1,1.26-3,2.62,2.62,0,0,1,2-.92c1,0,1.55.49,1.55,1.48a18,18,0,0,1-1.34,5.45q-1.51,4.14-4.85,11.74c-1.52,3.49-2.6,6.11-3.23,7.84Q95.57,90.87,95.11,95Z" transform="translate(0 0)"/><path class="cls-3" d="M163.56,59a13.57,13.57,0,0,0-1.79,1.19,4.4,4.4,0,0,1-2.25,1.27,1.38,1.38,0,0,1-1-.46,1.5,1.5,0,0,1-.49-1.09c0-.87,1.13-2.16,3.41-3.87A18.76,18.76,0,0,1,173,52.12a9.9,9.9,0,0,1,10.37,10.16q0,6.75-5,15.85a54.46,54.46,0,0,1-15.19,17.65q-6.93,5.2-12.31,5.2a4,4,0,0,1-3.2-1.26,3.51,3.51,0,0,1-.87-2.25c0-1.2.77-3.89,2.32-8.09a191.22,191.22,0,0,1,8.71-19.65Q158.57,68.19,163.56,59Zm3.3-1.62c.71.35,1.06.74,1.06,1.16a11.49,11.49,0,0,1-1.34,2.88A229.24,229.24,0,0,0,155.47,84q-4.11,9.7-4.11,11.92c0,.94.45,1.41,1.34,1.41q2.25,0,6-2.43,4.75-3,10.44-10a54.49,54.49,0,0,0,8.16-13.46,25.46,25.46,0,0,0,2.32-9.74,6.17,6.17,0,0,0-1.48-4.52,5.94,5.94,0,0,0-4.42-1.49A17.45,17.45,0,0,0,166.86,57.39Z" transform="translate(0 0)"/><path class="cls-3" d="M195.31,70.29l1.4-.24a68.23,68.23,0,0,1,10.83-1.48c1.48,0,2.22.6,2.22,1.79a1.49,1.49,0,0,1-.88,1.51,5.91,5.91,0,0,1-2,.36q-9.1.55-13.85,2.14a90.17,90.17,0,0,0-5.45,10.37,63.68,63.68,0,0,0-3.24,8.19l1.58-.56q5.2-1.75,7.67-2.29a32.59,32.59,0,0,1,6.15-.63,6.47,6.47,0,0,1,2.81.46,1.48,1.48,0,0,1,.81,1.48,1.4,1.4,0,0,1-1,1.44,10.87,10.87,0,0,1-2.18.17,37.58,37.58,0,0,0-16.6,4.57,3.5,3.5,0,0,1-1.61.53,2.19,2.19,0,0,1-1.76-1,2.73,2.73,0,0,1-.67-1.72c0-.59.74-2.74,2.22-6.47a144.47,144.47,0,0,1,9.1-18.56q1.72-3.06,6.54-10.3c.73-1.13,1.43-2.23,2.11-3.31a1.72,1.72,0,0,1-1.41-1.86,1.73,1.73,0,0,1,1.13-1.65,30.32,30.32,0,0,1,7-1.66,89.77,89.77,0,0,1,13.18-1.19q3.06,0,3.06,1.62a2.27,2.27,0,0,1-1,1.89,2.89,2.89,0,0,1-1.69.39l-.81,0h-1.16a72,72,0,0,0-7.31.52,41.83,41.83,0,0,0-7.14,1.34,1.62,1.62,0,0,1,.35.84A7.36,7.36,0,0,1,202,59.67l-1.69,2.61A93.32,93.32,0,0,0,195.31,70.29Z" transform="translate(0 0)"/><path class="cls-3" d="M214,82.74c1.26,0,1.9.51,1.9,1.54,0,.78-.59,1.36-1.76,1.76-2,.73-3,2-3,3.9a4.09,4.09,0,0,0,1.75,3.52,6.59,6.59,0,0,0,3.84,1.05,12.87,12.87,0,0,0,8.12-2.7A5.34,5.34,0,0,0,227,87.45a6.49,6.49,0,0,0-.64-2.92,31.75,31.75,0,0,0-2-3.38c-1.41-2.1-2.59-4-3.56-5.76a11.59,11.59,0,0,1-1.61-5.66q0-6.57,6.5-12.31a31.2,31.2,0,0,1,7.59-4.85,16.68,16.68,0,0,1,6.65-1.51,5.63,5.63,0,0,1,3.51,1.09,4.16,4.16,0,0,1,1.76,3.55q0,3.52-3.79,7.6A29.76,29.76,0,0,1,233,69.55a9.18,9.18,0,0,1-3.62,1.2,1.92,1.92,0,0,1-1.44-.67,1.42,1.42,0,0,1-.43-1c0-.87.78-1.57,2.32-2.11a24.19,24.19,0,0,0,7.53-4.25q4.22-3.53,4.22-6.15a2,2,0,0,0-.85-1.66,2.63,2.63,0,0,0-1.58-.49,14.17,14.17,0,0,0-6.08,1.86,21,21,0,0,0-7.74,6.44,11.4,11.4,0,0,0-2.46,6.64,10.54,10.54,0,0,0,1.3,4.85q1.1,2,2.78,4.54t2.74,4.5a9.9,9.9,0,0,1,1.3,4.6q0,4.15-4.74,7.35a16.22,16.22,0,0,1-9.14,2.67q-5,0-7.88-2.77a6.63,6.63,0,0,1-2.14-4.85,7.06,7.06,0,0,1,2-5.14,8,8,0,0,1,2.92-1.9A5.53,5.53,0,0,1,214,82.74Z" transform="translate(0 0)"/><path class="cls-3" d="M261.54,51.48a1.49,1.49,0,0,1,1.09.6,1.76,1.76,0,0,1,.46,1.16,5,5,0,0,1-.95,2.39q-.47.73-3.45,4.89-14,19.26-18,34.77c-.3,1.66-.93,2.49-1.9,2.49a1.74,1.74,0,0,1-1.37-.73,2.32,2.32,0,0,1-.56-1.52,23.94,23.94,0,0,1,1.69-6.5q3.87-11,13.85-26.23A112.4,112.4,0,0,1,259,53.42C260.15,52.13,261,51.48,261.54,51.48Z" transform="translate(0 0)"/><path class="cls-3" d="M269,91q-2.39,1.67-3.83,2.46a11.91,11.91,0,0,1-5.73,1.9,5.51,5.51,0,0,1-4.71-2.77,8.15,8.15,0,0,1-1.34-4.61q0-7.25,6.33-16.87a69.84,69.84,0,0,1,13.61-15.33q6.33-5.28,10.86-5.28a4.46,4.46,0,0,1,3.73,1.94A5.72,5.72,0,0,1,289,55.88q0,6.12-6,12.69-4.57,5-6.92,5a1.65,1.65,0,0,1-1.06-.43,1.49,1.49,0,0,1-.56-1.16c0-.58.51-1.3,1.54-2.14a36.49,36.49,0,0,0,6.47-6.54q3.9-5.16,3.91-8.19a1.6,1.6,0,0,0-.6-1.3,2.08,2.08,0,0,0-1.37-.46c-1.25,0-2.91.73-5,2.18a61.11,61.11,0,0,0-12.9,12.9,63.58,63.58,0,0,0-6.85,11.11c-1.6,3.35-2.39,6.1-2.39,8.23a4,4,0,0,0,.81,2.39,3.33,3.33,0,0,0,2.84,1.51q2.51,0,6.16-2.63a56.2,56.2,0,0,0,6.53-5.31c1.11-1.13,1.94-1.69,2.5-1.69a1.2,1.2,0,0,1,1,.46,2.22,2.22,0,0,1,.5,1.47,4.87,4.87,0,0,1-1.2,2.6,68.65,68.65,0,0,0-3.8,6,95.29,95.29,0,0,0-5.44,10.89,59.51,59.51,0,0,0-2.68,7,6.49,6.49,0,0,1-.88,2.22,1.9,1.9,0,0,1-1.61.7,1.69,1.69,0,0,1-1.41-.63,2.2,2.2,0,0,1-.42-1.34q0-3,3.48-10.34c.37-.77,1.56-3,3.55-6.75C267.6,93.62,268.2,92.49,269,91Z" transform="translate(0 0)"/><path class="cls-3" d="M302.5,91.1a124.84,124.84,0,0,1,6.89-16.55q3.12-6.17,8.4-15.44a63.11,63.11,0,0,1,5.13-8.19,3.51,3.51,0,0,1,2.53-1.34c.75,0,1.13.33,1.13,1a3,3,0,0,1-.49,1.37q-.46.81-2.92,4.75a188.2,188.2,0,0,0-11.85,21.72q-3.37,7.64-5.8,14.94a12.52,12.52,0,0,1-1.93,3.91,4.23,4.23,0,0,1-3.13,1.89q-1.44,0-1.83-2.07a18.63,18.63,0,0,1-.18-3.23,117.35,117.35,0,0,1,1.66-18.67,143.7,143.7,0,0,1,3-14.45Q299.71,64.45,293,76.34a97.78,97.78,0,0,0-7.94,17.58,26.47,26.47,0,0,1-1.58,4.18,2.71,2.71,0,0,1-2.36,1.55,1.3,1.3,0,0,1-1-.5,1.33,1.33,0,0,1-.35-.84c0-.89.76-3.24,2.29-7.07a144.22,144.22,0,0,1,9.8-19q4.08-6.93,9.71-14.73a30.07,30.07,0,0,1,4-4.82,3.68,3.68,0,0,1,2.25-1,1.27,1.27,0,0,1,.81.28,1.16,1.16,0,0,1,.49,1,4.36,4.36,0,0,1-.35,1.58,90.69,90.69,0,0,0-3.48,12,95.81,95.81,0,0,0-2.85,21C302.39,88.24,302.43,89.46,302.5,91.1Z" transform="translate(0 0)"/><path class="cls-3" d="M323.2,82.74c1.27,0,1.9.51,1.9,1.54,0,.78-.58,1.36-1.76,1.76q-3,1.09-3,3.9a4.1,4.1,0,0,0,1.76,3.52,6.56,6.56,0,0,0,3.83,1.05,12.87,12.87,0,0,0,8.12-2.7,5.31,5.31,0,0,0,2.18-4.36,6.62,6.62,0,0,0-.63-2.92,33.93,33.93,0,0,0-2-3.38c-1.41-2.1-2.59-4-3.55-5.76a11.5,11.5,0,0,1-1.62-5.66q0-6.57,6.51-12.31a30.83,30.83,0,0,1,7.59-4.85,16.64,16.64,0,0,1,6.64-1.51,5.64,5.64,0,0,1,3.52,1.09,4.19,4.19,0,0,1,1.76,3.55q0,3.52-3.8,7.6a29.76,29.76,0,0,1-8.37,6.25,9.13,9.13,0,0,1-3.62,1.2,1.92,1.92,0,0,1-1.44-.67,1.46,1.46,0,0,1-.42-1c0-.87.77-1.57,2.32-2.11a24.14,24.14,0,0,0,7.52-4.25c2.82-2.35,4.22-4.4,4.22-6.15a2,2,0,0,0-.84-1.66,2.65,2.65,0,0,0-1.58-.49,14.2,14.2,0,0,0-6.09,1.86,20.86,20.86,0,0,0-7.73,6.44,11.4,11.4,0,0,0-2.46,6.64,10.42,10.42,0,0,0,1.3,4.85c.73,1.34,1.65,2.85,2.78,4.54s2,3.12,2.74,4.5a9.9,9.9,0,0,1,1.3,4.6q0,4.15-4.75,7.35a16.2,16.2,0,0,1-9.14,2.67q-5,0-7.87-2.77a6.64,6.64,0,0,1-2.15-4.85,7.06,7.06,0,0,1,2-5.14,8.07,8.07,0,0,1,2.92-1.9A5.58,5.58,0,0,1,323.2,82.74Z" transform="translate(0 0)"/><path class="cls-4" d="M59.35,53.32A4.24,4.24,0,0,1,63,55a5.15,5.15,0,0,1,1,3.23A17.09,17.09,0,0,1,61.7,66a28.12,28.12,0,0,1-5,6.75c-1.31,1.29-2.34,1.93-3.09,1.93A1.8,1.8,0,0,1,52.25,74a1.77,1.77,0,0,1-.46-1.2c0-.82.71-1.76,2.14-2.81A20.16,20.16,0,0,0,58.75,65q2.64-3.87,2.64-6.54a2.34,2.34,0,0,0-.48-1.62,1.81,1.81,0,0,0-1.42-.53q-1.93,0-5.49,2.81a57.08,57.08,0,0,0-8.54,8.62,59.7,59.7,0,0,0-8.72,13.64q-3.09,7-3.09,11.88a6.09,6.09,0,0,0,1.37,4,4.6,4.6,0,0,0,3.69,1.86q3.8,0,9.56-5.9a49.73,49.73,0,0,0,4.19-5.21A24.25,24.25,0,0,0,54.53,85q.53-1,1.23-1c.52,0,.78.25.78.74,0,1-1.32,3.42-3.94,7.1a32.85,32.85,0,0,1-7.21,7.52Q41,102.57,37,102.57a9.53,9.53,0,0,1-1.71-.17,8.4,8.4,0,0,1-1.6-.57,8,8,0,0,1-3.05-3,10.1,10.1,0,0,1-1.44-5.38q0-7.59,7.17-19.16a71.22,71.22,0,0,1,12.9-15.85Q55.17,53.32,59.35,53.32Z" transform="translate(0 0)"/><path class="cls-4" d="M78.19,68.22q1.52-.8,6.08-3.65,1.33-.84,7.28-4.19Q94,59,97.74,57.33a9.4,9.4,0,0,1,3.13-1.06,1.46,1.46,0,0,1,.95.39,1.81,1.81,0,0,1,.52,1.33,1.85,1.85,0,0,1-.87,1.59,9.92,9.92,0,0,1-2.18.88A65.24,65.24,0,0,0,80.55,71.18,68.48,68.48,0,0,0,79,78.6a89.36,89.36,0,0,0-1.16,13,6.67,6.67,0,0,0,.47,2.86,1.52,1.52,0,0,0,1.42,1q1.88,0,7.42-7.84c.7-1,1.27-1.48,1.69-1.48s.81.33.81,1q0,1.41-3.06,5.83-4.4,6.48-8,6.47c-2,0-3.35-1.07-4-3.23a16.8,16.8,0,0,1-.64-5.06A60.12,60.12,0,0,1,75.45,78.1q1.55-7,1.86-8.64-2,3.62-7.34,12.34-6.43,11.1-7.7,17.68c-.33,1.43-1,2.14-2,2.14a1.65,1.65,0,0,1-1.51-.91,2.8,2.8,0,0,1-.29-1.34c0-1.82,1-4.85,2.85-9.07q1.62-3.54,4.43-8.79c.71-1.28,2.27-3.84,4.71-7.66q8-12.69,10.09-18.49a14.17,14.17,0,0,1,1.13-2.57A1.89,1.89,0,0,1,83.25,52a1.34,1.34,0,0,1,.88.32,1.47,1.47,0,0,1,.53,1.19Q84.66,56.55,78.19,68.22Z" transform="translate(0 0)"/><path class="cls-4" d="M99.11,97.19q2-2.67,3.62-5.13.92-1.44,4.82-7.87l3-4.89q3.3-5.42,4.39-6.93,1.8-2.57,3.55-2.56c.84,0,1.27.33,1.27,1a4.1,4.1,0,0,1-.5,1.69c-.23.47-.89,2.1-2,4.89a50.05,50.05,0,0,0-2.5,9.49,39,39,0,0,0-.63,6.36c0,.52,0,1.09.08,1.71s.15,1.3.27,2a30.19,30.19,0,0,0,3.09-5.06q1.62-3.3,5-10.51,3.21-6.89,7.49-14.31a107.23,107.23,0,0,1,8.41-12.38c1.52-2,2.74-2.95,3.65-2.95a1.61,1.61,0,0,1,1.44,1.55c0,.47-.72,1.63-2.18,3.48a108.49,108.49,0,0,0-8.19,12.06Q128.76,76.53,122,90.65q-3,6.33-4.57,9t-3.8,2.75a3,3,0,0,1-2.74-1.6A9.86,9.86,0,0,1,110,96a59.33,59.33,0,0,1,1.69-12.62,51,51,0,0,0-3.87,5.87c-1.1,1.88-2.17,3.68-3.2,5.42-1.5,2.51-2.5,4.19-3,5.06a13.55,13.55,0,0,1-2.32,3.16,2.86,2.86,0,0,1-2.07.85,2.17,2.17,0,0,1-2.08-1.23,4.41,4.41,0,0,1-.45-2.08q0-8.35,8.78-30,4.29-10.57,5-13a7.44,7.44,0,0,1,1.26-3,2.61,2.61,0,0,1,2-.92c1,0,1.55.5,1.55,1.48a17.93,17.93,0,0,1-1.34,5.45q-1.51,4.16-4.85,11.74-2.28,5.25-3.23,7.84Q99.57,93.09,99.11,97.19Z" transform="translate(0 0)"/><path class="cls-4" d="M167.56,61.23a13.57,13.57,0,0,0-1.79,1.19,4.4,4.4,0,0,1-2.25,1.27,1.38,1.38,0,0,1-1-.46,1.52,1.52,0,0,1-.5-1.09q0-1.29,3.41-3.86A18.76,18.76,0,0,1,177,54.34,9.9,9.9,0,0,1,187.32,64.5q0,6.75-5,15.85A54.21,54.21,0,0,1,167.14,98q-6.93,5.2-12.31,5.21a4,4,0,0,1-3.2-1.27,3.48,3.48,0,0,1-.88-2.25c0-1.2.78-3.89,2.32-8.09A191.39,191.39,0,0,1,161.79,72Q162.57,70.41,167.56,61.23Zm3.3-1.62c.71.35,1.06.74,1.06,1.16a11.32,11.32,0,0,1-1.34,2.88,230.34,230.34,0,0,0-11.11,22.57q-4.11,9.7-4.11,11.92c0,.94.44,1.41,1.34,1.41q2.25,0,6-2.43,4.75-3,10.44-10a54.31,54.31,0,0,0,8.16-13.46,25.42,25.42,0,0,0,2.32-9.74,6.17,6.17,0,0,0-1.48-4.52,6,6,0,0,0-4.43-1.49A17.44,17.44,0,0,0,170.86,59.61Z" transform="translate(0 0)"/><path class="cls-4" d="M199.31,72.51l1.4-.24a68.23,68.23,0,0,1,10.83-1.48c1.48,0,2.21.6,2.21,1.79a1.51,1.51,0,0,1-.87,1.52,6.22,6.22,0,0,1-2,.35q-9.1.55-13.85,2.14A90.17,90.17,0,0,0,191.54,87a63.36,63.36,0,0,0-3.24,8.19c.54-.18,1.07-.37,1.58-.56a77.92,77.92,0,0,1,7.67-2.28,31.83,31.83,0,0,1,6.15-.64,6.62,6.62,0,0,1,2.81.46,1.48,1.48,0,0,1,.81,1.48,1.4,1.4,0,0,1-1,1.44,11,11,0,0,1-2.18.17,37.55,37.55,0,0,0-16.6,4.58,3.47,3.47,0,0,1-1.61.52,2.19,2.19,0,0,1-1.76-1,2.71,2.71,0,0,1-.67-1.72c0-.59.74-2.74,2.22-6.47a145.11,145.11,0,0,1,9.1-18.56q1.72-3.06,6.54-10.3c.73-1.13,1.43-2.23,2.11-3.31a1.72,1.72,0,0,1-1.41-1.86,1.73,1.73,0,0,1,1.13-1.65,31,31,0,0,1,7-1.65,88.58,88.58,0,0,1,13.18-1.2q3.06,0,3.06,1.62a2.3,2.3,0,0,1-1,1.9,3,3,0,0,1-1.69.38l-.81,0h-1.16a71.84,71.84,0,0,0-7.31.52,42.83,42.83,0,0,0-7.14,1.34,1.72,1.72,0,0,1,.35.84A7.44,7.44,0,0,1,206,61.9l-1.69,2.6A93.32,93.32,0,0,0,199.31,72.51Z" transform="translate(0 0)"/><path class="cls-4" d="M218,85c1.26,0,1.9.51,1.9,1.55,0,.77-.59,1.36-1.76,1.75-2,.73-3,2-3,3.91a4.07,4.07,0,0,0,1.75,3.51,6.59,6.59,0,0,0,3.84,1.06A12.88,12.88,0,0,0,228.84,94,5.34,5.34,0,0,0,231,89.67a6.49,6.49,0,0,0-.64-2.92,30.49,30.49,0,0,0-2-3.37c-1.4-2.11-2.59-4-3.55-5.77A11.59,11.59,0,0,1,223.18,72q0-6.57,6.5-12.3a30.62,30.62,0,0,1,7.59-4.85,16.53,16.53,0,0,1,6.65-1.52,5.69,5.69,0,0,1,3.51,1.09,4.16,4.16,0,0,1,1.76,3.55q0,3.53-3.79,7.6A30.13,30.13,0,0,1,237,71.78,9.29,9.29,0,0,1,233.41,73,1.92,1.92,0,0,1,232,72.3a1.42,1.42,0,0,1-.43-1c0-.86.78-1.57,2.32-2.11a24,24,0,0,0,7.53-4.25q4.22-3.51,4.22-6.15a2,2,0,0,0-.85-1.65,2.57,2.57,0,0,0-1.58-.5,14.07,14.07,0,0,0-6.08,1.87,21,21,0,0,0-7.74,6.43,11.4,11.4,0,0,0-2.46,6.64,10.61,10.61,0,0,0,1.3,4.86q1.1,2,2.78,4.53t2.74,4.5a9.9,9.9,0,0,1,1.3,4.61q0,4.14-4.74,7.34a16.15,16.15,0,0,1-9.14,2.68,10.82,10.82,0,0,1-7.88-2.78,6.61,6.61,0,0,1-2.14-4.85,7.06,7.06,0,0,1,2-5.14,7.88,7.88,0,0,1,2.91-1.89A5.45,5.45,0,0,1,218,85Z" transform="translate(0 0)"/><path class="cls-4" d="M265.54,53.71a1.47,1.47,0,0,1,1.09.59,1.76,1.76,0,0,1,.46,1.16,5,5,0,0,1-.95,2.39q-.47.75-3.45,4.89-14,19.26-18,34.77c-.3,1.66-.94,2.5-1.9,2.5a1.76,1.76,0,0,1-1.37-.74,2.32,2.32,0,0,1-.56-1.51,24,24,0,0,1,1.69-6.51q3.87-11,13.85-26.22A112.9,112.9,0,0,1,263,55.64C264.15,54.35,265,53.71,265.54,53.71Z" transform="translate(0 0)"/><path class="cls-4" d="M273,93.19q-2.39,1.65-3.83,2.46a12,12,0,0,1-5.73,1.9,5.52,5.52,0,0,1-4.71-2.78,8.13,8.13,0,0,1-1.34-4.61q0-7.25,6.33-16.87A69.84,69.84,0,0,1,277.32,58q6.33-5.28,10.86-5.27a4.45,4.45,0,0,1,3.73,1.93A5.72,5.72,0,0,1,293,58.1q0,6.12-6,12.69-4.57,5-6.93,5a1.68,1.68,0,0,1-1-.42,1.49,1.49,0,0,1-.56-1.16c0-.59.51-1.3,1.54-2.15a36.49,36.49,0,0,0,6.47-6.54q3.9-5.16,3.91-8.19a1.6,1.6,0,0,0-.6-1.3,2.14,2.14,0,0,0-1.37-.46c-1.25,0-2.91.73-5,2.18a60.71,60.71,0,0,0-12.9,12.91,62.62,62.62,0,0,0-6.85,11.11c-1.6,3.35-2.39,6.09-2.39,8.22a4,4,0,0,0,.8,2.39,3.36,3.36,0,0,0,2.85,1.51c1.67,0,3.72-.87,6.15-2.63A55.63,55.63,0,0,0,277.63,86c1.11-1.13,1.94-1.69,2.5-1.69a1.2,1.2,0,0,1,1,.46,2.24,2.24,0,0,1,.5,1.47,4.92,4.92,0,0,1-1.2,2.61,66.51,66.51,0,0,0-3.8,6,96.3,96.3,0,0,0-5.45,10.9,60.11,60.11,0,0,0-2.67,7,6.7,6.7,0,0,1-.88,2.22,1.88,1.88,0,0,1-1.61.7,1.69,1.69,0,0,1-1.41-.63,2.18,2.18,0,0,1-.42-1.34q0-3,3.48-10.33c.37-.78,1.56-3,3.55-6.75C271.6,95.85,272.2,94.71,273,93.19Z" transform="translate(0 0)"/><path class="cls-4" d="M306.5,93.33a124.42,124.42,0,0,1,6.89-16.56q3.12-6.15,8.4-15.44a63.11,63.11,0,0,1,5.13-8.19,3.5,3.5,0,0,1,2.53-1.33c.75,0,1.13.33,1.13,1a3,3,0,0,1-.49,1.37q-.46.81-2.92,4.75a188.2,188.2,0,0,0-11.85,21.72q-3.37,7.64-5.8,15a12.56,12.56,0,0,1-1.93,3.9,4.25,4.25,0,0,1-3.13,1.9c-1,0-1.57-.69-1.83-2.08a18.63,18.63,0,0,1-.18-3.23,117.45,117.45,0,0,1,1.66-18.67,143.7,143.7,0,0,1,3-14.45Q303.71,66.69,297,78.56a97.78,97.78,0,0,0-7.94,17.58,26.47,26.47,0,0,1-1.58,4.18,2.71,2.71,0,0,1-2.36,1.55,1.29,1.29,0,0,1-1-.49,1.36,1.36,0,0,1-.35-.85q0-1.34,2.29-7.06a143,143,0,0,1,9.8-19.06q4.08-6.91,9.71-14.73a29.39,29.39,0,0,1,4-4.81,3.64,3.64,0,0,1,2.25-1,1.27,1.27,0,0,1,.81.28,1.17,1.17,0,0,1,.49,1,4.36,4.36,0,0,1-.35,1.58,91.15,91.15,0,0,0-3.48,12,95.81,95.81,0,0,0-2.85,21C306.39,90.47,306.43,91.69,306.5,93.33Z" transform="translate(0 0)"/><path class="cls-4" d="M327.2,85c1.27,0,1.9.51,1.9,1.55,0,.77-.58,1.36-1.76,1.75q-3,1.09-3,3.91a4.08,4.08,0,0,0,1.76,3.51,6.56,6.56,0,0,0,3.83,1.06A12.88,12.88,0,0,0,338,94a5.31,5.31,0,0,0,2.18-4.36,6.62,6.62,0,0,0-.63-2.92,34,34,0,0,0-2-3.37q-2.12-3.16-3.55-5.77A11.5,11.5,0,0,1,332.37,72q0-6.57,6.51-12.3a30.25,30.25,0,0,1,7.59-4.85,16.49,16.49,0,0,1,6.64-1.52,5.7,5.7,0,0,1,3.52,1.09,4.19,4.19,0,0,1,1.76,3.55q0,3.53-3.8,7.6a30,30,0,0,1-8.37,6.26A9.24,9.24,0,0,1,342.6,73a1.92,1.92,0,0,1-1.44-.67,1.46,1.46,0,0,1-.42-1c0-.86.77-1.57,2.32-2.11a23.94,23.94,0,0,0,7.52-4.25c2.82-2.34,4.22-4.39,4.22-6.15a2,2,0,0,0-.84-1.65,2.59,2.59,0,0,0-1.58-.5,14.1,14.1,0,0,0-6.09,1.87,20.83,20.83,0,0,0-7.73,6.43,11.4,11.4,0,0,0-2.46,6.64,10.49,10.49,0,0,0,1.3,4.86c.73,1.33,1.65,2.84,2.78,4.53s2,3.12,2.74,4.5a9.9,9.9,0,0,1,1.3,4.61q0,4.14-4.75,7.34a16.13,16.13,0,0,1-9.14,2.68,10.8,10.8,0,0,1-7.87-2.78,6.62,6.62,0,0,1-2.15-4.85,7.06,7.06,0,0,1,2-5.14,7.92,7.92,0,0,1,2.92-1.89A5.4,5.4,0,0,1,327.2,85Z" transform="translate(0 0)"/><path class="cls-5" d="M323.51,78.22a1.5,1.5,0,0,0,0-3,1.5,1.5,0,0,0,0,3Z" transform="translate(0 0)"/><path class="cls-5" d="M237.4,80.11a1.5,1.5,0,0,0,0-3,1.5,1.5,0,0,0,0,3Z" transform="translate(0 0)"/><path class="cls-5" d="M214.73,65.11a1.5,1.5,0,0,0,0-3,1.5,1.5,0,0,0,0,3Z" transform="translate(0 0)"/><path class="cls-5" d="M204.79,80.87l-4.53,1.2a1.51,1.51,0,0,0-1,1.84,1.53,1.53,0,0,0,1.84,1l4.54-1.2a1.52,1.52,0,0,0,1-1.84,1.54,1.54,0,0,0-1.85-1Z" transform="translate(0 0)"/><path class="cls-5" d="M91.15,68.8,90,72.4c-.35,1.12-.66,2.27-1.07,3.38-.09.23,0,0-.06.13s-.11.22-.17.33a3.45,3.45,0,0,1-.2.32c-.06.08-.06.08,0,0l-.1.11s-.3.26-.17.17-.18.1-.21.12c-.35.22.12,0-.1.06l-.34.1c-.37.11.22,0-.17,0h-.29c-.37,0,.2.08-.16,0,0,0-.39-.12-.23-.06s-.21-.11-.21-.11l-.2-.13c.12.1-.15-.14-.17-.16-.22-.19,0,.11-.13-.15l-.23,1.82,5-5-2.57-1.06q0,.3,0,.6c0,.18,0,.2,0,0l-.06.3a6.14,6.14,0,0,1-.3,1c.08-.22-.13.28-.16.33s-.14.27-.22.4-.22.34-.34.5c.08-.1.07-.09,0,0s-.13.15-.2.23A1.5,1.5,0,0,0,89,77.85a8.42,8.42,0,0,0,2.24-5.59,1.51,1.51,0,0,0-2.56-1.06l-4.94,5A1.53,1.53,0,0,0,83.47,78a4.55,4.55,0,0,0,7.7,0,15,15,0,0,0,1.52-4l1.36-4.38a1.53,1.53,0,0,0-1-1.85,1.54,1.54,0,0,0-1.85,1Z" transform="translate(0 0)"/><path class="cls-5" d="M43.86,78.68l-1,2.24a1.5,1.5,0,0,0,2.35,1.82l1.38-1.13-2.12-2.12-5.61,6.89a1.54,1.54,0,0,0,0,2.12,1.51,1.51,0,0,0,2.12,0l5.61-6.89a1.5,1.5,0,0,0-2.12-2.12l-1.38,1.13,2.36,1.81,1-2.24a1.53,1.53,0,0,0-.54-2,1.51,1.51,0,0,0-2,.54Z" transform="translate(0 0)"/></svg>